<mxfile host="app.diagrams.net" agent="Mozilla/5.0 (Macintosh; Intel Mac OS X 10_15_7) AppleWebKit/537.36 (KHTML, like Gecko) Chrome/133.0.0.0 Safari/537.36" version="26.0.14">
  <diagram name="Page-1" id="v4OusTVnB2c6mvOyYK9t">
    <mxGraphModel dx="782" dy="1139" grid="1" gridSize="10" guides="1" tooltips="1" connect="1" arrows="1" fold="1" page="1" pageScale="1" pageWidth="850" pageHeight="1100" math="0" shadow="0">
      <root>
        <mxCell id="0" />
        <mxCell id="1" parent="0" />
        <mxCell id="LFQ0JxEmRbDi7rDfqKw2-4" style="edgeStyle=orthogonalEdgeStyle;rounded=0;orthogonalLoop=1;jettySize=auto;html=1;" edge="1" parent="1" source="LFQ0JxEmRbDi7rDfqKw2-1" target="LFQ0JxEmRbDi7rDfqKw2-3">
          <mxGeometry relative="1" as="geometry" />
        </mxCell>
        <mxCell id="LFQ0JxEmRbDi7rDfqKw2-1" value="Users" style="shape=umlActor;verticalLabelPosition=bottom;verticalAlign=top;html=1;outlineConnect=0;" vertex="1" parent="1">
          <mxGeometry x="210" y="440" width="30" height="60" as="geometry" />
        </mxCell>
        <mxCell id="LFQ0JxEmRbDi7rDfqKw2-5" style="edgeStyle=orthogonalEdgeStyle;rounded=0;orthogonalLoop=1;jettySize=auto;html=1;" edge="1" parent="1" source="LFQ0JxEmRbDi7rDfqKw2-2" target="LFQ0JxEmRbDi7rDfqKw2-3">
          <mxGeometry relative="1" as="geometry" />
        </mxCell>
        <mxCell id="LFQ0JxEmRbDi7rDfqKw2-2" value="Admin&lt;div&gt;&lt;br&gt;&lt;/div&gt;" style="shape=umlActor;verticalLabelPosition=bottom;verticalAlign=top;html=1;outlineConnect=0;" vertex="1" parent="1">
          <mxGeometry x="210" y="540" width="30" height="60" as="geometry" />
        </mxCell>
        <mxCell id="LFQ0JxEmRbDi7rDfqKw2-9" style="edgeStyle=orthogonalEdgeStyle;rounded=0;orthogonalLoop=1;jettySize=auto;html=1;" edge="1" parent="1" source="LFQ0JxEmRbDi7rDfqKw2-3" target="LFQ0JxEmRbDi7rDfqKw2-8">
          <mxGeometry relative="1" as="geometry" />
        </mxCell>
        <mxCell id="LFQ0JxEmRbDi7rDfqKw2-3" value="&lt;b&gt;AWS API Gateway&lt;/b&gt;&lt;div&gt;&lt;br&gt;&lt;/div&gt;" style="outlineConnect=0;dashed=0;verticalLabelPosition=bottom;verticalAlign=top;align=center;html=1;shape=mxgraph.aws3.api_gateway;fillColor=#D9A741;gradientColor=none;" vertex="1" parent="1">
          <mxGeometry x="370" y="470" width="76.5" height="93" as="geometry" />
        </mxCell>
        <mxCell id="LFQ0JxEmRbDi7rDfqKw2-18" style="edgeStyle=orthogonalEdgeStyle;rounded=0;orthogonalLoop=1;jettySize=auto;html=1;entryX=0;entryY=0.5;entryDx=0;entryDy=0;" edge="1" parent="1" source="LFQ0JxEmRbDi7rDfqKw2-8" target="LFQ0JxEmRbDi7rDfqKw2-14">
          <mxGeometry relative="1" as="geometry" />
        </mxCell>
        <mxCell id="LFQ0JxEmRbDi7rDfqKw2-19" style="edgeStyle=orthogonalEdgeStyle;rounded=0;orthogonalLoop=1;jettySize=auto;html=1;entryX=0;entryY=0.5;entryDx=0;entryDy=0;" edge="1" parent="1" source="LFQ0JxEmRbDi7rDfqKw2-8" target="LFQ0JxEmRbDi7rDfqKw2-15">
          <mxGeometry relative="1" as="geometry" />
        </mxCell>
        <mxCell id="LFQ0JxEmRbDi7rDfqKw2-20" style="edgeStyle=orthogonalEdgeStyle;rounded=0;orthogonalLoop=1;jettySize=auto;html=1;entryX=0;entryY=0.5;entryDx=0;entryDy=0;" edge="1" parent="1" source="LFQ0JxEmRbDi7rDfqKw2-8" target="LFQ0JxEmRbDi7rDfqKw2-13">
          <mxGeometry relative="1" as="geometry" />
        </mxCell>
        <mxCell id="LFQ0JxEmRbDi7rDfqKw2-21" style="edgeStyle=orthogonalEdgeStyle;rounded=0;orthogonalLoop=1;jettySize=auto;html=1;entryX=0;entryY=0.5;entryDx=0;entryDy=0;" edge="1" parent="1" source="LFQ0JxEmRbDi7rDfqKw2-8" target="LFQ0JxEmRbDi7rDfqKw2-12">
          <mxGeometry relative="1" as="geometry" />
        </mxCell>
        <mxCell id="LFQ0JxEmRbDi7rDfqKw2-22" style="edgeStyle=orthogonalEdgeStyle;rounded=0;orthogonalLoop=1;jettySize=auto;html=1;entryX=0;entryY=0.5;entryDx=0;entryDy=0;" edge="1" parent="1" source="LFQ0JxEmRbDi7rDfqKw2-8" target="LFQ0JxEmRbDi7rDfqKw2-16">
          <mxGeometry relative="1" as="geometry" />
        </mxCell>
        <mxCell id="LFQ0JxEmRbDi7rDfqKw2-23" style="edgeStyle=orthogonalEdgeStyle;rounded=0;orthogonalLoop=1;jettySize=auto;html=1;entryX=0;entryY=0.5;entryDx=0;entryDy=0;" edge="1" parent="1" source="LFQ0JxEmRbDi7rDfqKw2-8" target="LFQ0JxEmRbDi7rDfqKw2-17">
          <mxGeometry relative="1" as="geometry" />
        </mxCell>
        <mxCell id="LFQ0JxEmRbDi7rDfqKw2-8" value="&lt;b&gt;AWS Lambda&lt;/b&gt;" style="outlineConnect=0;dashed=0;verticalLabelPosition=bottom;verticalAlign=top;align=center;html=1;shape=mxgraph.aws3.lambda;fillColor=#F58534;gradientColor=none;" vertex="1" parent="1">
          <mxGeometry x="560" y="470" width="76.5" height="93" as="geometry" />
        </mxCell>
        <mxCell id="LFQ0JxEmRbDi7rDfqKw2-12" value="&lt;b&gt;createApplication(&lt;/b&gt;userId, requestedAmount, isExpress&lt;b&gt;)&lt;/b&gt;" style="rounded=1;whiteSpace=wrap;html=1;" vertex="1" parent="1">
          <mxGeometry x="700" y="268" width="180" height="70" as="geometry" />
        </mxCell>
        <mxCell id="LFQ0JxEmRbDi7rDfqKw2-13" value="&lt;b&gt;disburseFunds&lt;/b&gt;(userId, applicationId, amount)" style="rounded=1;whiteSpace=wrap;html=1;" vertex="1" parent="1">
          <mxGeometry x="700" y="358" width="180" height="70" as="geometry" />
        </mxCell>
        <mxCell id="LFQ0JxEmRbDi7rDfqKw2-14" value="&lt;b&gt;repayApplication&lt;/b&gt;(applicationId, amount)" style="rounded=1;whiteSpace=wrap;html=1;" vertex="1" parent="1">
          <mxGeometry x="700" y="441" width="180" height="70" as="geometry" />
        </mxCell>
        <mxCell id="LFQ0JxEmRbDi7rDfqKw2-15" value="&lt;b&gt;cancelApplication&lt;/b&gt;(applicationId)" style="rounded=1;whiteSpace=wrap;html=1;" vertex="1" parent="1">
          <mxGeometry x="700" y="528" width="180" height="70" as="geometry" />
        </mxCell>
        <mxCell id="LFQ0JxEmRbDi7rDfqKw2-16" value="&lt;b&gt;rejectApplication&lt;/b&gt;(applicationId)" style="rounded=1;whiteSpace=wrap;html=1;" vertex="1" parent="1">
          <mxGeometry x="700" y="618" width="180" height="70" as="geometry" />
        </mxCell>
        <mxCell id="LFQ0JxEmRbDi7rDfqKw2-17" value="&lt;b&gt;viewApplication&lt;/b&gt;(applicationId)" style="rounded=1;whiteSpace=wrap;html=1;" vertex="1" parent="1">
          <mxGeometry x="700" y="708" width="180" height="70" as="geometry" />
        </mxCell>
        <mxCell id="LFQ0JxEmRbDi7rDfqKw2-24" value="&lt;b&gt;PostgreSQL&lt;/b&gt;" style="outlineConnect=0;dashed=0;verticalLabelPosition=bottom;verticalAlign=top;align=center;html=1;shape=mxgraph.aws3.rds;fillColor=#2E73B8;gradientColor=none;" vertex="1" parent="1">
          <mxGeometry x="1020" y="476" width="72" height="81" as="geometry" />
        </mxCell>
        <mxCell id="LFQ0JxEmRbDi7rDfqKw2-25" style="edgeStyle=orthogonalEdgeStyle;rounded=0;orthogonalLoop=1;jettySize=auto;html=1;entryX=0;entryY=0.5;entryDx=0;entryDy=0;entryPerimeter=0;" edge="1" parent="1" source="LFQ0JxEmRbDi7rDfqKw2-12" target="LFQ0JxEmRbDi7rDfqKw2-24">
          <mxGeometry relative="1" as="geometry" />
        </mxCell>
        <mxCell id="LFQ0JxEmRbDi7rDfqKw2-26" style="edgeStyle=orthogonalEdgeStyle;rounded=0;orthogonalLoop=1;jettySize=auto;html=1;entryX=0;entryY=0.5;entryDx=0;entryDy=0;entryPerimeter=0;" edge="1" parent="1" source="LFQ0JxEmRbDi7rDfqKw2-13" target="LFQ0JxEmRbDi7rDfqKw2-24">
          <mxGeometry relative="1" as="geometry" />
        </mxCell>
        <mxCell id="LFQ0JxEmRbDi7rDfqKw2-27" style="edgeStyle=orthogonalEdgeStyle;rounded=0;orthogonalLoop=1;jettySize=auto;html=1;entryX=0;entryY=0.5;entryDx=0;entryDy=0;entryPerimeter=0;" edge="1" parent="1" source="LFQ0JxEmRbDi7rDfqKw2-14" target="LFQ0JxEmRbDi7rDfqKw2-24">
          <mxGeometry relative="1" as="geometry" />
        </mxCell>
        <mxCell id="LFQ0JxEmRbDi7rDfqKw2-28" style="edgeStyle=orthogonalEdgeStyle;rounded=0;orthogonalLoop=1;jettySize=auto;html=1;entryX=0;entryY=0.5;entryDx=0;entryDy=0;entryPerimeter=0;" edge="1" parent="1" source="LFQ0JxEmRbDi7rDfqKw2-15" target="LFQ0JxEmRbDi7rDfqKw2-24">
          <mxGeometry relative="1" as="geometry" />
        </mxCell>
        <mxCell id="LFQ0JxEmRbDi7rDfqKw2-29" style="edgeStyle=orthogonalEdgeStyle;rounded=0;orthogonalLoop=1;jettySize=auto;html=1;entryX=0;entryY=0.5;entryDx=0;entryDy=0;entryPerimeter=0;" edge="1" parent="1" source="LFQ0JxEmRbDi7rDfqKw2-16" target="LFQ0JxEmRbDi7rDfqKw2-24">
          <mxGeometry relative="1" as="geometry" />
        </mxCell>
        <mxCell id="LFQ0JxEmRbDi7rDfqKw2-30" style="edgeStyle=orthogonalEdgeStyle;rounded=0;orthogonalLoop=1;jettySize=auto;html=1;entryX=0;entryY=0.5;entryDx=0;entryDy=0;entryPerimeter=0;" edge="1" parent="1" source="LFQ0JxEmRbDi7rDfqKw2-17" target="LFQ0JxEmRbDi7rDfqKw2-24">
          <mxGeometry relative="1" as="geometry" />
        </mxCell>
      </root>
    </mxGraphModel>
  </diagram>
</mxfile>
